<svg xmlns="http://www.w3.org/2000/svg" xmlns:xlink="http://www.w3.org/1999/xlink" width="500" zoomAndPan="magnify" viewBox="0 0 375 374.999991" height="500" preserveAspectRatio="xMidYMid meet" version="1.0"><defs><g/><clipPath id="9e2793603e"><path d="M 50 165 L 94 165 L 94 233.449219 L 50 233.449219 Z M 50 165 " clip-rule="nonzero"/></clipPath><clipPath id="971a336193"><path d="M 73 162.199219 L 124.152344 162.199219 L 124.152344 233.449219 L 73 233.449219 Z M 73 162.199219 " clip-rule="nonzero"/></clipPath><clipPath id="d3a97170ff"><path d="M 37.5 146 L 106 146 L 106 172 L 37.5 172 Z M 37.5 146 " clip-rule="nonzero"/></clipPath><clipPath id="78154ddd99"><path d="M 57 139.984375 L 135.75 139.984375 L 135.75 172 L 57 172 Z M 57 139.984375 " clip-rule="nonzero"/></clipPath><clipPath id="b661a5e6ee"><path d="M 37.5 217 L 106 217 L 106 244 L 37.5 244 Z M 37.5 217 " clip-rule="nonzero"/></clipPath><clipPath id="4da12df26a"><path d="M 57 217 L 135.75 217 L 135.75 249.484375 L 57 249.484375 Z M 57 217 " clip-rule="nonzero"/></clipPath></defs><g clip-path="url(#9e2793603e)"><path fill="#04b2d9" d="M 88.148438 175.851562 C 83.09375 173.097656 77.808594 170.8125 72.34375 169.734375 C 69.628906 169.195312 66.871094 168.953125 64.25 169.222656 C 62.949219 169.371094 61.683594 169.640625 60.527344 170.078125 C 59.382812 170.523438 58.347656 171.132812 57.527344 171.90625 C 56.734375 172.703125 56.078125 173.59375 55.667969 174.671875 C 55.261719 175.75 55.019531 176.945312 54.902344 178.203125 C 54.738281 180.742188 54.992188 183.460938 55.449219 186.199219 C 55.902344 188.9375 56.472656 191.730469 57.074219 194.53125 C 57.648438 197.257812 58.351562 199.964844 59.1875 202.628906 C 59.996094 205.304688 60.941406 207.941406 62 210.527344 C 63.035156 213.125 64.210938 215.660156 65.492188 218.125 C 66.765625 220.589844 68.195312 222.96875 69.773438 225.148438 C 70.566406 226.222656 71.417969 227.246094 72.304688 228.054688 C 72.738281 228.476562 73.1875 228.792969 73.558594 229.011719 C 73.644531 229.050781 73.738281 229.109375 73.808594 229.140625 C 73.863281 229.148438 73.933594 229.183594 73.972656 229.199219 C 73.980469 229.183594 74.023438 229.222656 74.003906 229.21875 C 73.972656 229.207031 73.984375 229.25 73.925781 229.261719 C 73.832031 229.308594 73.746094 229.433594 73.800781 229.382812 C 73.84375 229.339844 73.945312 229.160156 74.027344 228.925781 C 74.199219 228.433594 74.347656 227.769531 74.480469 227.085938 C 74.753906 225.703125 75.023438 224.207031 75.445312 222.742188 C 76.242188 219.796875 77.578125 216.949219 79.386719 214.511719 C 81.214844 212.089844 83.429688 210.003906 85.90625 208.394531 C 87.144531 207.589844 88.429688 206.882812 89.753906 206.273438 C 91.085938 205.679688 92.4375 205.15625 93.820312 204.746094 C 92.554688 205.441406 91.3125 206.160156 90.140625 206.96875 C 88.960938 207.761719 87.832031 208.621094 86.789062 209.558594 C 84.695312 211.425781 82.886719 213.5625 81.542969 215.941406 C 80.179688 218.304688 79.289062 220.863281 78.8125 223.53125 C 78.570312 224.871094 78.421875 226.226562 78.253906 227.683594 C 78.164062 228.421875 78.078125 229.183594 77.851562 230.074219 C 77.726562 230.523438 77.566406 231.027344 77.222656 231.589844 C 76.902344 232.148438 76.269531 232.789062 75.503906 233.101562 C 75.125 233.28125 74.765625 233.324219 74.382812 233.390625 C 74.011719 233.441406 73.695312 233.398438 73.347656 233.378906 C 73.035156 233.332031 72.757812 233.253906 72.464844 233.179688 C 72.199219 233.097656 71.96875 232.992188 71.722656 232.894531 C 70.816406 232.464844 70.074219 231.957031 69.433594 231.429688 C 68.132812 230.363281 67.097656 229.203125 66.117188 228.019531 C 64.179688 225.640625 62.574219 223.113281 61.105469 220.523438 C 58.195312 215.332031 55.917969 209.847656 54.160156 204.191406 C 53.300781 201.359375 52.5625 198.484375 51.988281 195.570312 C 51.453125 192.726562 50.894531 189.871094 50.519531 186.910156 C 50.144531 183.964844 49.914062 180.894531 50.300781 177.699219 C 50.53125 176.097656 50.921875 174.460938 51.644531 172.886719 C 52.367188 171.308594 53.515625 169.886719 54.84375 168.757812 C 56.195312 167.640625 57.769531 166.921875 59.335938 166.449219 C 60.910156 165.996094 62.5 165.792969 64.058594 165.769531 C 67.175781 165.734375 70.164062 166.335938 72.992188 167.238281 C 78.640625 169.113281 83.734375 172.128906 88.148438 175.851562 Z M 88.148438 175.851562 " fill-opacity="1" fill-rule="nonzero"/></g><g clip-path="url(#971a336193)"><path fill="#04b2d9" d="M 73.414062 179.734375 C 74.898438 179.605469 76.347656 179.332031 77.734375 178.886719 C 79.125 178.457031 80.46875 177.902344 81.746094 177.21875 C 84.308594 175.863281 86.699219 174.207031 89.015625 172.402344 C 91.351562 170.628906 93.640625 168.738281 96.125 166.976562 C 97.363281 166.089844 98.65625 165.238281 100.054688 164.484375 C 101.449219 163.730469 102.953125 163.054688 104.609375 162.636719 C 105.027344 162.546875 105.449219 162.457031 105.875 162.375 C 106.308594 162.324219 106.742188 162.261719 107.183594 162.234375 C 107.628906 162.230469 108.070312 162.195312 108.519531 162.222656 L 109.527344 162.304688 C 109.644531 162.316406 109.804688 162.347656 109.945312 162.371094 C 110.929688 162.582031 111.679688 162.867188 112.46875 163.1875 C 113.242188 163.507812 113.992188 163.875 114.722656 164.289062 C 116.167969 165.128906 117.574219 166.148438 118.761719 167.453125 C 119.945312 168.726562 120.914062 170.1875 121.660156 171.71875 C 123.160156 174.792969 123.761719 178.09375 123.96875 181.28125 C 124.148438 184.484375 123.914062 187.628906 123.453125 190.699219 C 122.503906 196.839844 120.6875 202.703125 118.429688 208.347656 C 117.289062 211.164062 116.042969 213.933594 114.65625 216.632812 C 113.285156 219.335938 111.777344 221.976562 110.117188 224.539062 C 109.289062 225.820312 108.410156 227.078125 107.457031 228.304688 C 106.492188 229.53125 105.515625 230.734375 104.195312 231.859375 C 103.863281 232.144531 103.484375 232.421875 103.042969 232.6875 C 102.78125 232.824219 102.5625 232.953125 102.207031 233.0625 C 102.125 233.089844 102.046875 233.117188 101.957031 233.140625 C 101.851562 233.164062 101.742188 233.179688 101.632812 233.195312 C 101.523438 233.210938 101.421875 233.222656 101.304688 233.226562 C 101.167969 233.222656 101.027344 233.210938 100.890625 233.191406 C 100.628906 233.167969 100.328125 233.050781 100.0625 232.902344 C 99.929688 232.832031 99.832031 232.746094 99.71875 232.65625 C 99.613281 232.566406 99.503906 232.464844 99.445312 232.382812 C 99.300781 232.207031 99.164062 232.011719 99.097656 231.863281 L 98.980469 231.621094 L 98.902344 231.410156 C 98.710938 230.859375 98.652344 230.414062 98.601562 230 C 98.507812 229.167969 98.484375 228.425781 98.445312 227.6875 C 98.40625 226.949219 98.359375 226.234375 98.296875 225.523438 C 98.074219 222.695312 97.335938 219.953125 95.585938 217.773438 C 93.847656 215.585938 91.148438 214.167969 88.25 213.53125 C 89.738281 213.5625 91.238281 213.828125 92.683594 214.34375 C 94.125 214.871094 95.476562 215.699219 96.648438 216.769531 C 97.8125 217.847656 98.738281 219.199219 99.410156 220.640625 C 100.09375 222.082031 100.53125 223.617188 100.855469 225.132812 C 101.175781 226.636719 101.335938 228.203125 101.613281 229.503906 C 101.679688 229.820312 101.773438 230.109375 101.84375 230.25 L 101.867188 230.300781 C 101.875 230.300781 101.878906 230.304688 101.878906 230.304688 C 101.890625 230.328125 101.875 230.273438 101.847656 230.246094 C 101.835938 230.242188 101.804688 230.191406 101.769531 230.160156 C 101.734375 230.125 101.699219 230.113281 101.652344 230.078125 C 101.554688 230.003906 101.421875 229.980469 101.347656 229.953125 C 101.304688 229.941406 101.257812 229.9375 101.210938 229.945312 C 101.1875 229.941406 101.175781 229.933594 101.15625 229.933594 C 101.136719 229.933594 101.121094 229.9375 101.105469 229.945312 C 101.105469 229.941406 101.113281 229.933594 101.117188 229.929688 C 101.117188 229.929688 101.210938 229.859375 101.277344 229.820312 C 101.457031 229.679688 101.664062 229.503906 101.878906 229.28125 C 102.738281 228.394531 103.585938 227.234375 104.359375 226.0625 C 105.144531 224.878906 105.871094 223.636719 106.582031 222.382812 C 109.382812 217.328125 111.773438 211.984375 113.773438 206.542969 C 114.773438 203.820312 115.679688 201.066406 116.433594 198.285156 C 117.203125 195.511719 117.835938 192.707031 118.253906 189.902344 C 118.695312 187.101562 118.902344 184.289062 118.785156 181.554688 C 118.679688 178.824219 118.1875 176.164062 117.15625 173.851562 C 116.640625 172.695312 115.984375 171.632812 115.183594 170.703125 C 114.402344 169.785156 113.429688 168.976562 112.347656 168.277344 C 111.804688 167.933594 111.234375 167.617188 110.652344 167.339844 C 110.085938 167.066406 109.449219 166.820312 108.992188 166.6875 C 108.949219 166.679688 108.929688 166.667969 108.863281 166.65625 L 108.648438 166.628906 L 108.214844 166.5625 C 107.925781 166.519531 107.625 166.535156 107.332031 166.511719 C 107.03125 166.511719 106.730469 166.542969 106.425781 166.550781 L 105.503906 166.679688 C 103.015625 167.136719 100.472656 168.429688 97.992188 169.882812 C 95.503906 171.34375 93.03125 172.996094 90.457031 174.542969 C 87.875 176.066406 85.195312 177.542969 82.320312 178.554688 C 80.886719 179.066406 79.40625 179.445312 77.90625 179.664062 C 76.40625 179.859375 74.890625 179.910156 73.414062 179.734375 Z M 73.414062 179.734375 " fill-opacity="1" fill-rule="nonzero"/></g><g clip-path="url(#d3a97170ff)"><path fill="#00adef" d="M 85.933594 149.203125 C 92.871094 149.203125 99.441406 150.75 105.328125 153.519531 C 97.960938 148.992188 89.289062 146.382812 80.003906 146.382812 C 61.671875 146.382812 45.71875 156.5625 37.5 171.574219 L 46.679688 171.574219 C 54.617188 158.183594 69.222656 149.203125 85.933594 149.203125 " fill-opacity="1" fill-rule="nonzero"/></g><g clip-path="url(#78154ddd99)"><path fill="#3871c1" d="M 125.484375 171.574219 L 135.746094 171.574219 C 127.011719 152.914062 108.054688 139.988281 86.074219 139.988281 C 75.5625 139.988281 65.742188 142.945312 57.402344 148.066406 C 64.066406 144.933594 71.507812 143.179688 79.359375 143.179688 C 99.527344 143.179688 116.992188 154.734375 125.484375 171.574219 " fill-opacity="1" fill-rule="nonzero"/></g><g clip-path="url(#b661a5e6ee)"><path fill="#00adef" d="M 105.328125 235.953125 C 99.441406 238.722656 92.871094 240.273438 85.933594 240.273438 C 69.222656 240.273438 54.617188 231.289062 46.679688 217.898438 L 37.5 217.898438 C 45.71875 232.910156 61.671875 243.089844 80.007812 243.089844 C 89.289062 243.089844 97.960938 240.480469 105.328125 235.953125 " fill-opacity="1" fill-rule="nonzero"/></g><g clip-path="url(#4da12df26a)"><path fill="#3871c1" d="M 79.359375 246.292969 C 71.507812 246.292969 64.066406 244.539062 57.402344 241.402344 C 65.742188 246.527344 75.5625 249.484375 86.074219 249.484375 C 108.058594 249.484375 127.011719 236.554688 135.75 217.898438 L 125.484375 217.898438 C 116.992188 234.738281 99.527344 246.292969 79.359375 246.292969 " fill-opacity="1" fill-rule="nonzero"/></g><g fill="#3871c1" fill-opacity="1"><g transform="translate(137.924701, 193.358073)"><g><path d="M 9.234375 0.25 C 7.671875 0.25 6.296875 -0.0703125 5.109375 -0.71875 C 3.929688 -1.375 3.003906 -2.347656 2.328125 -3.640625 C 1.660156 -4.941406 1.328125 -6.539062 1.328125 -8.4375 C 1.328125 -10.34375 1.660156 -11.941406 2.328125 -13.234375 C 3.003906 -14.535156 3.929688 -15.507812 5.109375 -16.15625 C 6.296875 -16.800781 7.671875 -17.125 9.234375 -17.125 C 10.859375 -17.125 12.238281 -16.804688 13.375 -16.171875 C 14.507812 -15.535156 15.316406 -14.566406 15.796875 -13.265625 L 13.359375 -11.78125 L 13.078125 -11.796875 C 12.710938 -12.671875 12.21875 -13.296875 11.59375 -13.671875 C 10.976562 -14.054688 10.191406 -14.25 9.234375 -14.25 C 7.828125 -14.25 6.726562 -13.785156 5.9375 -12.859375 C 5.15625 -11.929688 4.765625 -10.457031 4.765625 -8.4375 C 4.765625 -6.425781 5.15625 -4.957031 5.9375 -4.03125 C 6.726562 -3.101562 7.828125 -2.640625 9.234375 -2.640625 C 11.421875 -2.640625 12.765625 -3.707031 13.265625 -5.84375 L 13.546875 -5.84375 L 16.015625 -4.5625 C 15.546875 -2.957031 14.753906 -1.753906 13.640625 -0.953125 C 12.523438 -0.148438 11.054688 0.25 9.234375 0.25 Z M 9.234375 0.25 "/></g></g></g><g fill="#3871c1" fill-opacity="1"><g transform="translate(154.483225, 193.358073)"><g><path d="M 5.53125 -7.421875 L 5.53125 -2.796875 L 13.59375 -2.796875 L 13.59375 0 L 2.1875 0 L 2.1875 -16.890625 L 13.40625 -16.890625 L 13.40625 -14.09375 L 5.53125 -14.09375 L 5.53125 -10.140625 L 12.421875 -10.140625 L 12.421875 -7.421875 Z M 5.53125 -7.421875 "/></g></g></g><g fill="#3871c1" fill-opacity="1"><g transform="translate(168.997915, 193.358073)"><g><path d="M 5.421875 0 L 2.1875 0 L 2.1875 -16.890625 L 6.015625 -16.890625 L 12.796875 -6 L 13.09375 -6.046875 L 13.09375 -16.890625 L 16.3125 -16.890625 L 16.3125 0 L 12.890625 0 L 5.71875 -11.625 L 5.421875 -11.578125 Z M 5.421875 0 "/></g></g></g><g fill="#3871c1" fill-opacity="1"><g transform="translate(187.507896, 193.358073)"><g><path d="M 13.53125 -16.890625 L 13.53125 -14.078125 L 8.65625 -14.078125 L 8.65625 0 L 5.34375 0 L 5.34375 -14.078125 L 0.46875 -14.078125 L 0.46875 -16.890625 Z M 13.53125 -16.890625 "/></g></g></g><g fill="#3871c1" fill-opacity="1"><g transform="translate(201.502967, 193.358073)"><g><path d="M 2.1875 0 L 2.1875 -16.890625 L 8.96875 -16.890625 C 10.71875 -16.890625 12.035156 -16.484375 12.921875 -15.671875 C 13.816406 -14.867188 14.265625 -13.757812 14.265625 -12.34375 C 14.265625 -11.320312 14.003906 -10.484375 13.484375 -9.828125 C 12.960938 -9.171875 12.1875 -8.671875 11.15625 -8.328125 L 11.15625 -8.078125 C 11.6875 -7.847656 12.113281 -7.503906 12.4375 -7.046875 C 12.769531 -6.597656 13.082031 -5.925781 13.375 -5.03125 L 15.0625 0 L 11.625 0 L 9.984375 -5.046875 C 9.804688 -5.554688 9.613281 -5.953125 9.40625 -6.234375 C 9.195312 -6.515625 8.925781 -6.71875 8.59375 -6.84375 C 8.269531 -6.96875 7.847656 -7.03125 7.328125 -7.03125 L 5.53125 -7.03125 L 5.53125 0 Z M 8.578125 -9.671875 C 10.191406 -9.671875 11 -10.425781 11 -11.9375 C 11 -13.476562 10.191406 -14.25 8.578125 -14.25 L 5.53125 -14.25 L 5.53125 -9.671875 Z M 8.578125 -9.671875 "/></g></g></g><g fill="#3871c1" fill-opacity="1"><g transform="translate(217.287836, 193.358073)"><g><path d="M 5.53125 -7.421875 L 5.53125 -2.796875 L 13.59375 -2.796875 L 13.59375 0 L 2.1875 0 L 2.1875 -16.890625 L 13.40625 -16.890625 L 13.40625 -14.09375 L 5.53125 -14.09375 L 5.53125 -10.140625 L 12.421875 -10.140625 L 12.421875 -7.421875 Z M 5.53125 -7.421875 "/></g></g></g><g fill="#3871c1" fill-opacity="1"><g transform="translate(231.802526, 193.358073)"><g/></g></g><g fill="#3871c1" fill-opacity="1"><g transform="translate(237.379769, 193.358073)"><g><path d="M 8.265625 -16.890625 C 11.003906 -16.890625 13.097656 -16.179688 14.546875 -14.765625 C 15.992188 -13.347656 16.71875 -11.238281 16.71875 -8.4375 C 16.71875 -5.65625 15.992188 -3.550781 14.546875 -2.125 C 13.097656 -0.707031 11.003906 0 8.265625 0 L 2.1875 0 L 2.1875 -16.890625 Z M 8.078125 -2.8125 C 9.816406 -2.8125 11.113281 -3.253906 11.96875 -4.140625 C 12.832031 -5.023438 13.265625 -6.457031 13.265625 -8.4375 C 13.265625 -10.414062 12.832031 -11.847656 11.96875 -12.734375 C 11.113281 -13.628906 9.816406 -14.078125 8.078125 -14.078125 L 5.53125 -14.078125 L 5.53125 -2.8125 Z M 8.078125 -2.8125 "/></g></g></g><g fill="#3871c1" fill-opacity="1"><g transform="translate(255.427868, 193.358073)"><g><path d="M 5.53125 -7.421875 L 5.53125 -2.796875 L 13.59375 -2.796875 L 13.59375 0 L 2.1875 0 L 2.1875 -16.890625 L 13.40625 -16.890625 L 13.40625 -14.09375 L 5.53125 -14.09375 L 5.53125 -10.140625 L 12.421875 -10.140625 L 12.421875 -7.421875 Z M 5.53125 -7.421875 "/></g></g></g><g fill="#3871c1" fill-opacity="1"><g transform="translate(269.942558, 193.358073)"><g><path d="M 5.421875 0 L 2.1875 0 L 2.1875 -16.890625 L 6.015625 -16.890625 L 12.796875 -6 L 13.09375 -6.046875 L 13.09375 -16.890625 L 16.3125 -16.890625 L 16.3125 0 L 12.890625 0 L 5.71875 -11.625 L 5.421875 -11.578125 Z M 5.421875 0 "/></g></g></g><g fill="#3871c1" fill-opacity="1"><g transform="translate(288.452539, 193.358073)"><g><path d="M 13.53125 -16.890625 L 13.53125 -14.078125 L 8.65625 -14.078125 L 8.65625 0 L 5.34375 0 L 5.34375 -14.078125 L 0.46875 -14.078125 L 0.46875 -16.890625 Z M 13.53125 -16.890625 "/></g></g></g><g fill="#3871c1" fill-opacity="1"><g transform="translate(302.44761, 193.358073)"><g><path d="M 16.203125 0 L 12.6875 0 L 11.421875 -3.890625 L 4.953125 -3.890625 L 3.6875 0 L 0.25 0 L 6.09375 -16.890625 L 10.375 -16.890625 Z M 8.03125 -13.359375 L 5.859375 -6.703125 L 10.5 -6.703125 L 8.3125 -13.359375 Z M 8.03125 -13.359375 "/></g></g></g><g fill="#3871c1" fill-opacity="1"><g transform="translate(318.90221, 193.358073)"><g><path d="M 5.53125 0 L 2.1875 0 L 2.1875 -16.890625 L 5.53125 -16.890625 Z M 5.53125 0 "/></g></g></g><g fill="#3871c1" fill-opacity="1"><g transform="translate(326.638759, 193.358073)"><g><path d="M 2.1875 0 L 2.1875 -16.890625 L 8.96875 -16.890625 C 10.71875 -16.890625 12.035156 -16.484375 12.921875 -15.671875 C 13.816406 -14.867188 14.265625 -13.757812 14.265625 -12.34375 C 14.265625 -11.320312 14.003906 -10.484375 13.484375 -9.828125 C 12.960938 -9.171875 12.1875 -8.671875 11.15625 -8.328125 L 11.15625 -8.078125 C 11.6875 -7.847656 12.113281 -7.503906 12.4375 -7.046875 C 12.769531 -6.597656 13.082031 -5.925781 13.375 -5.03125 L 15.0625 0 L 11.625 0 L 9.984375 -5.046875 C 9.804688 -5.554688 9.613281 -5.953125 9.40625 -6.234375 C 9.195312 -6.515625 8.925781 -6.71875 8.59375 -6.84375 C 8.269531 -6.96875 7.847656 -7.03125 7.328125 -7.03125 L 5.53125 -7.03125 L 5.53125 0 Z M 8.578125 -9.671875 C 10.191406 -9.671875 11 -10.425781 11 -11.9375 C 11 -13.476562 10.191406 -14.25 8.578125 -14.25 L 5.53125 -14.25 L 5.53125 -9.671875 Z M 8.578125 -9.671875 "/></g></g></g><g fill="#3871c1" fill-opacity="1"><g transform="translate(342.423628, 193.358073)"><g><path d="M 5.53125 -7.421875 L 5.53125 -2.796875 L 13.59375 -2.796875 L 13.59375 0 L 2.1875 0 L 2.1875 -16.890625 L 13.40625 -16.890625 L 13.40625 -14.09375 L 5.53125 -14.09375 L 5.53125 -10.140625 L 12.421875 -10.140625 L 12.421875 -7.421875 Z M 5.53125 -7.421875 "/></g></g></g><g fill="#000000" fill-opacity="1"><g transform="translate(188.789826, 213.167746)"><g><path d="M -0.386719 0 L 3.386719 0 L 4.640625 -2.964844 L 10.800781 -2.964844 L 12.070312 0 L 15.960938 0 L 9.585938 -13.976562 L 6.238281 -13.976562 Z M 5.832031 -5.796875 L 7.664062 -10.109375 L 9.53125 -5.796875 Z M 5.832031 -5.796875 "/></g></g></g><g fill="#000000" fill-opacity="1"><g transform="translate(212.893774, 213.167746)"><g><path d="M 5.0625 -13.976562 L 1.558594 -13.976562 L 1.558594 0 L 12.246094 0 L 12.246094 -2.867188 L 5.0625 -2.867188 Z M 5.0625 -13.976562 "/></g></g></g><g fill="#000000" fill-opacity="1"><g transform="translate(234.244831, 213.167746)"><g><path d="M -0.386719 0 L 3.386719 0 L 4.640625 -2.964844 L 10.800781 -2.964844 L 12.070312 0 L 15.960938 0 L 9.585938 -13.976562 L 6.238281 -13.976562 Z M 5.832031 -5.796875 L 7.664062 -10.109375 L 9.53125 -5.796875 Z M 5.832031 -5.796875 "/></g></g></g><g fill="#000000" fill-opacity="1"><g transform="translate(258.348783, 213.167746)"><g><path d="M 1.558594 -13.976562 L 1.558594 0 L 4.929688 0 L 4.929688 -9.492188 L 9.085938 0 L 11.996094 0 L 16.328125 -9.335938 L 16.328125 0 L 19.695312 0 L 19.695312 -13.976562 L 15.210938 -13.976562 L 10.589844 -3.964844 L 6.082031 -13.976562 Z M 1.558594 -13.976562 "/></g></g></g><g fill="#000000" fill-opacity="1"><g transform="translate(288.131793, 213.167746)"><g><path d="M 5.121094 -13.976562 L 1.617188 -13.976562 L 1.617188 0 L 5.121094 0 Z M 5.121094 -13.976562 "/></g></g></g></svg>